<svg width="16" height="16" viewBox="0 0 16 16" fill="none" xmlns="http://www.w3.org/2000/svg">
<g clip-path="url(#clip0_365_1249)">
<path d="M7.11562 0.365625C7.60313 -0.121875 8.39375 -0.121875 8.88437 0.365625L15.6344 7.11562C16.1219 7.60313 16.1219 8.39375 15.6344 8.88437L8.88437 15.6344C8.39687 16.1219 7.60625 16.1219 7.11562 15.6344L0.365625 8.88437C-0.121875 8.39687 -0.121875 7.60625 0.365625 7.11562L7.11562 0.365625ZM9.85312 4.64687C9.70937 4.50312 9.49375 4.4625 9.30937 4.5375C9.125 4.6125 9 4.79688 9 5V6.75H7C5.89687 6.75 5 7.64687 5 8.75V10.25C5 10.6656 5.33437 11 5.75 11C6.16563 11 6.5 10.6656 6.5 10.25V8.75C6.5 8.475 6.725 8.25 7 8.25H9V10C9 10.2031 9.12187 10.3844 9.30937 10.4625C9.49687 10.5406 9.7125 10.4969 9.85312 10.3531L12.3531 7.85313C12.5469 7.65938 12.5469 7.34062 12.3531 7.14687L9.85312 4.64687Z" fill="#00B8CA"/>
</g>
<defs>
<clipPath id="clip0_365_1249">
<rect width="16" height="16" fill="white"/>
</clipPath>
</defs>
</svg>
