<svg width="40" height="36" viewBox="0 0 40 36" fill="none" xmlns="http://www.w3.org/2000/svg">
<path d="M12.7847 2.65278C13.4722 3.27083 13.5278 4.31944 12.9097 5.00694L7.90972 10.5625C7.60417 10.9028 7.17361 11.1042 6.71528 11.1111C6.25694 11.1181 5.81944 10.9444 5.49306 10.625L2.70833 7.84722C2.05556 7.19444 2.05556 6.13889 2.70833 5.49306C3.36111 4.84722 4.41667 4.84028 5.0625 5.49306L6.59722 7.02778L10.4236 2.77778C11.0417 2.09028 12.0903 2.03472 12.7778 2.65278H12.7847ZM12.7847 13.7639C13.4722 14.3819 13.5278 15.4306 12.9097 16.1181L7.90972 21.6736C7.60417 22.0139 7.17361 22.2153 6.71528 22.2222C6.25694 22.2292 5.81944 22.0556 5.49306 21.7361L2.70833 18.9583C2.05556 18.3056 2.05556 17.25 2.70833 16.6042C3.36111 15.9583 4.41667 15.9514 5.0625 16.6042L6.59722 18.1389L10.4236 13.8889C11.0417 13.2014 12.0903 13.1458 12.7778 13.7639H12.7847ZM17.7778 6.66667C17.7778 5.4375 18.7708 4.44444 20 4.44444H35.5556C36.7847 4.44444 37.7778 5.4375 37.7778 6.66667C37.7778 7.89583 36.7847 8.88889 35.5556 8.88889H20C18.7708 8.88889 17.7778 7.89583 17.7778 6.66667ZM17.7778 17.7778C17.7778 16.5486 18.7708 15.5556 20 15.5556H35.5556C36.7847 15.5556 37.7778 16.5486 37.7778 17.7778C37.7778 19.0069 36.7847 20 35.5556 20H20C18.7708 20 17.7778 19.0069 17.7778 17.7778ZM13.3333 28.8889C13.3333 27.6597 14.3264 26.6667 15.5556 26.6667H35.5556C36.7847 26.6667 37.7778 27.6597 37.7778 28.8889C37.7778 30.1181 36.7847 31.1111 35.5556 31.1111H15.5556C14.3264 31.1111 13.3333 30.1181 13.3333 28.8889ZM5.55556 32.2222C3.71528 32.2222 2.22222 30.7292 2.22222 28.8889C2.22222 27.0486 3.71528 25.5556 5.55556 25.5556C7.39583 25.5556 8.88889 27.0486 8.88889 28.8889C8.88889 30.7292 7.39583 32.2222 5.55556 32.2222Z" fill="#00B8CA"/>
</svg>
