<svg width="30" height="40" viewBox="0 0 30 40" fill="none" xmlns="http://www.w3.org/2000/svg">
<g clip-path="url(#clip0_847_355)">
<path d="M16.8516 39C20.8594 33.9844 30 21.8281 30 15C30 6.71875 23.2812 0 15 0C6.71875 0 0 6.71875 0 15C0 21.8281 9.14062 33.9844 13.1484 39C14.1094 40.1953 15.8906 40.1953 16.8516 39Z" fill="#00B8CA"/>
<path d="M15.7617 7.49213C15.6211 7.19138 15.3242 7 14.9981 7C14.672 7 14.3777 7.19138 14.2345 7.49213L12.5298 11.1093L8.72263 11.6889C8.40448 11.7381 8.13936 11.9678 8.04126 12.2822C7.94317 12.5966 8.02271 12.9439 8.25071 13.1763L11.0133 15.9951L10.3611 19.9786C10.3081 20.3067 10.4406 20.6403 10.7031 20.8344C10.9656 21.0285 11.3129 21.0531 11.5992 20.8973L15.0007 19.0244L18.4023 20.8973C18.6886 21.0531 19.0359 21.0312 19.2984 20.8344C19.5609 20.6375 19.6934 20.3067 19.6404 19.9786L18.9855 15.9951L21.7481 13.1763C21.9761 12.9439 22.0583 12.5966 21.9576 12.2822C21.8568 11.9678 21.5944 11.7381 21.2762 11.6889L17.4664 11.1093L15.7617 7.49213Z" fill="white"/>
</g>
<defs>
<clipPath id="clip0_847_355">
<rect width="30" height="40" fill="white"/>
</clipPath>
</defs>
</svg>
