<svg width="21" height="15" viewBox="0 0 21 15" fill="none" xmlns="http://www.w3.org/2000/svg">
<g clip-path="url(#clip0_254_404)">
<path d="M0 3.75C0 2.71582 1.01972 1.875 2.27394 1.875H11.3697C12.6239 1.875 13.6436 2.71582 13.6436 3.75V11.25C13.6436 12.2842 12.6239 13.125 11.3697 13.125H2.27394C1.01972 13.125 0 12.2842 0 11.25V3.75ZM19.865 2.92383C20.2345 3.08789 20.4654 3.4043 20.4654 3.75V11.25C20.4654 11.5957 20.2345 11.9121 19.865 12.0762C19.4955 12.2402 19.0478 12.2227 18.696 12.0293L15.2851 10.1543L14.7806 9.87598V9.375V5.625V5.12402L15.2851 4.8457L18.696 2.9707C19.0442 2.78027 19.4919 2.75977 19.865 2.92383Z" fill="#00B8CA"/>
</g>
<defs>
<clipPath id="clip0_254_404">
<rect width="20.4654" height="15" fill="white"/>
</clipPath>
</defs>
</svg>
